# xmcd CD database file
#
# Track frame offsets:
#	150
#	18975
#	34078
#	54261
#	72447
#	91607
#	107717
#	126064
#	141798
#	159379
#	173020
#	188546
#
# Disc length: 2740 seconds
#
# Revision: 0
# Processed by: cddbd v1.5.2PL0 Copyright (c) Steve Scherf et al.
# Submitted via: CDex 1.70beta2
#
DISCID=8e0ab20c
DTITLE=Saloon Drifters - The Thunder Rolls
DYEAR=1900
DGENRE=Country
TTITLE0=The Thunder Rolls
TTITLE1=She's Not Cryin' Anymore
TTITLE2=Seven Spanish Angels
TTITLE3=What Colour Is The Wind?
TTITLE4=The Workin Man
TTITLE5=Tennessee Waltz
TTITLE6=Little Rock
TTITLE7=The Rose
TTITLE8=Amazed
TTITLE9=On The Other Hand
TTITLE10=Always On My Mind
TTITLE11=The American Trilogy
EXTD=
EXTT0=
EXTT1=
EXTT2=
EXTT3=
EXTT4=
EXTT5=
EXTT6=
EXTT7=
EXTT8=
EXTT9=
EXTT10=
EXTT11=
PLAYORDER=
